<mxfile host="65bd71144e">
    <diagram id="LYP9TSNvhC-ifNBUHEC6" name="Page-1">
        <mxGraphModel dx="1118" dy="1890" grid="1" gridSize="10" guides="1" tooltips="1" connect="1" arrows="1" fold="1" page="1" pageScale="1" pageWidth="850" pageHeight="1100" math="0" shadow="0">
            <root>
                <mxCell id="0"/>
                <mxCell id="1" parent="0"/>
                <mxCell id="2" value="" style="whiteSpace=wrap;html=1;aspect=fixed;" parent="1" vertex="1">
                    <mxGeometry x="120" y="20" width="610" height="610" as="geometry"/>
                </mxCell>
                <mxCell id="3" value="" style="rounded=0;whiteSpace=wrap;html=1;" parent="1" vertex="1">
                    <mxGeometry x="130" y="30" width="590" height="70" as="geometry"/>
                </mxCell>
                <mxCell id="4" value="Titre /// Et lien de retour vers acceuil" style="rounded=0;whiteSpace=wrap;html=1;" parent="1" vertex="1">
                    <mxGeometry x="210" y="40" width="360" height="50" as="geometry"/>
                </mxCell>
                <mxCell id="5" value="Nav /DropDown" style="rounded=0;whiteSpace=wrap;html=1;" parent="1" vertex="1">
                    <mxGeometry x="140" y="40" width="60" height="50" as="geometry"/>
                </mxCell>
                <mxCell id="6" value="Langue Ou date" style="rounded=0;whiteSpace=wrap;html=1;" parent="1" vertex="1">
                    <mxGeometry x="580" y="40" width="140" height="50" as="geometry"/>
                </mxCell>
                <mxCell id="7" value="" style="rounded=0;whiteSpace=wrap;html=1;" parent="1" vertex="1">
                    <mxGeometry x="130" y="110" width="590" height="450" as="geometry"/>
                </mxCell>
                <mxCell id="8" value="Footer" style="rounded=0;whiteSpace=wrap;html=1;" parent="1" vertex="1">
                    <mxGeometry x="130" y="570" width="590" height="50" as="geometry"/>
                </mxCell>
                <mxCell id="22" value="img..." style="rounded=0;whiteSpace=wrap;html=1;" parent="1" vertex="1">
                    <mxGeometry x="425" y="430" width="260" height="120" as="geometry"/>
                </mxCell>
                <mxCell id="24" value="img" style="rounded=0;whiteSpace=wrap;html=1;" parent="1" vertex="1">
                    <mxGeometry x="425" y="304.38" width="260" height="115" as="geometry"/>
                </mxCell>
                <mxCell id="25" value="img" style="rounded=0;whiteSpace=wrap;html=1;" parent="1" vertex="1">
                    <mxGeometry x="425" y="170" width="260" height="125" as="geometry"/>
                </mxCell>
                <mxCell id="26" value="img" style="rounded=0;whiteSpace=wrap;html=1;" parent="1" vertex="1">
                    <mxGeometry x="140" y="170" width="260" height="125" as="geometry"/>
                </mxCell>
                <mxCell id="27" value="img" style="rounded=0;whiteSpace=wrap;html=1;" parent="1" vertex="1">
                    <mxGeometry x="140" y="300" width="260" height="115" as="geometry"/>
                </mxCell>
                <mxCell id="28" value="img" style="rounded=0;whiteSpace=wrap;html=1;" parent="1" vertex="1">
                    <mxGeometry x="140" y="430" width="260" height="120" as="geometry"/>
                </mxCell>
                <mxCell id="29" value="" style="rounded=0;whiteSpace=wrap;html=1;rotation=90;" parent="1" vertex="1">
                    <mxGeometry x="515.48" y="353.6" width="376.25" height="16.56" as="geometry"/>
                </mxCell>
                <mxCell id="30" value="" style="rounded=0;whiteSpace=wrap;html=1;rotation=90;fillColor=#f5f5f5;gradientColor=#b3b3b3;strokeColor=#666666;" parent="1" vertex="1">
                    <mxGeometry x="688.75" y="518.75" width="32.5" height="10" as="geometry"/>
                </mxCell>
                <mxCell id="31" value="GALLERY" style="rounded=0;whiteSpace=wrap;html=1;" parent="1" vertex="1">
                    <mxGeometry x="140" y="120" width="570" height="40" as="geometry"/>
                </mxCell>
                <mxCell id="32" value="Antoine" style="rounded=0;whiteSpace=wrap;html=1;" parent="1" vertex="1">
                    <mxGeometry x="10" y="-30" width="150" height="40" as="geometry"/>
                </mxCell>
            </root>
        </mxGraphModel>
    </diagram>
</mxfile>